# xmcd
# 
# Track frame offsets:
#     150
#     24525
#     47738
#     68291
#     87011
#     103294
#     126131
#     146194
# 
# Disc length: 2226
# 
# Revision: 1
# Processed by: cddbd v1.5.2PL0 Copyright (c) Steve Scherf et al.
# Submitted via: fre:ac v1.0.31
# 
DISCID=6808b008
DTITLE=Di Gi Charat - Di Gi Charat The BEST [Disc2]
DYEAR=2003
DGENRE=Anime
TTITLE0=PARTY☆NIGHT (2002オリジナルver.)
TTITLE1=D・U・P！
TTITLE2=Wonder Girl・マジック3
TTITLE3=Happy Day
TTITLE4=see you see you
TTITLE5=We are THE ONE!
TTITLE6=La‥La‥Forever
TTITLE7=LOVE ピョコラ様
EXTD=YEAR: 2003
EXTT0=
EXTT1=
EXTT2=
EXTT3=
EXTT4=
EXTT5=
EXTT6=
EXTT7=
PLAYORDER=
